<mxfile host="Electron" modified="2023-08-20T22:30:59.272Z" agent="Mozilla/5.0 (X11; Linux x86_64) AppleWebKit/537.36 (KHTML, like Gecko) draw.io/21.6.8 Chrome/114.0.5735.289 Electron/25.5.0 Safari/537.36" etag="knZgqzt2e1_JT6PDFefr" version="21.6.8" type="device">
  <diagram id="6a731a19-8d31-9384-78a2-239565b7b9f0" name="Page-1">
    <mxGraphModel dx="1139" dy="529" grid="1" gridSize="10" guides="1" tooltips="1" connect="1" arrows="1" fold="1" page="1" pageScale="1" pageWidth="1100" pageHeight="850" background="none" math="0" shadow="0">
      <root>
        <mxCell id="0" />
        <mxCell id="1" parent="0" />
        <mxCell id="2" value="cm (no params)" style="shape=mxgraph.flowchart.terminator;strokeWidth=2;gradientColor=none;gradientDirection=north;fontStyle=0;html=1;" parent="1" vertex="1">
          <mxGeometry x="510" y="40" width="120" height="40" as="geometry" />
        </mxCell>
        <mxCell id="7" style="fontStyle=1;strokeColor=#003366;strokeWidth=1;html=1;exitX=0.5;exitY=1;exitDx=0;exitDy=0;exitPerimeter=0;" parent="1" source="2" edge="1">
          <mxGeometry relative="1" as="geometry">
            <mxPoint x="570" y="90" as="sourcePoint" />
            <mxPoint x="570" y="120" as="targetPoint" />
          </mxGeometry>
        </mxCell>
        <mxCell id="rXkE-m-KWas-da-UY29d-8" value="create dir:&lt;br&gt;$HOME/.config/certificatemanager" style="rounded=1;whiteSpace=wrap;html=1;absoluteArcSize=1;arcSize=14;strokeWidth=2;" parent="1" vertex="1">
          <mxGeometry x="470" y="120" width="200" height="40" as="geometry" />
        </mxCell>
        <mxCell id="rXkE-m-KWas-da-UY29d-9" value="create sample environmentfile&lt;br&gt;create explanation file" style="rounded=1;whiteSpace=wrap;html=1;absoluteArcSize=1;arcSize=14;strokeWidth=2;" parent="1" vertex="1">
          <mxGeometry x="470" y="200" width="200" height="40" as="geometry" />
        </mxCell>
        <mxCell id="rXkE-m-KWas-da-UY29d-10" style="fontStyle=1;strokeColor=#003366;strokeWidth=1;html=1;exitX=0.5;exitY=1;exitDx=0;exitDy=0;entryX=0.5;entryY=0;entryDx=0;entryDy=0;" parent="1" source="rXkE-m-KWas-da-UY29d-8" target="rXkE-m-KWas-da-UY29d-9" edge="1">
          <mxGeometry relative="1" as="geometry">
            <mxPoint x="580.5" y="90" as="sourcePoint" />
            <mxPoint x="580" y="130" as="targetPoint" />
          </mxGeometry>
        </mxCell>
        <mxCell id="rXkE-m-KWas-da-UY29d-11" value="create sample certificate&lt;br&gt;create explanation file" style="rounded=1;whiteSpace=wrap;html=1;absoluteArcSize=1;arcSize=14;strokeWidth=2;" parent="1" vertex="1">
          <mxGeometry x="470" y="280" width="200" height="40" as="geometry" />
        </mxCell>
        <mxCell id="rXkE-m-KWas-da-UY29d-12" style="fontStyle=1;strokeColor=#003366;strokeWidth=1;html=1;exitX=0.5;exitY=1;exitDx=0;exitDy=0;entryX=0.5;entryY=0;entryDx=0;entryDy=0;" parent="1" target="rXkE-m-KWas-da-UY29d-11" edge="1">
          <mxGeometry relative="1" as="geometry">
            <mxPoint x="570.5" y="240" as="sourcePoint" />
            <mxPoint x="580" y="210" as="targetPoint" />
          </mxGeometry>
        </mxCell>
        <mxCell id="rXkE-m-KWas-da-UY29d-14" style="fontStyle=1;strokeColor=#003366;strokeWidth=1;html=1;exitX=0.5;exitY=1;exitDx=0;exitDy=0;" parent="1" source="rXkE-m-KWas-da-UY29d-11" edge="1">
          <mxGeometry relative="1" as="geometry">
            <mxPoint x="580" y="90" as="sourcePoint" />
            <mxPoint x="570" y="360" as="targetPoint" />
          </mxGeometry>
        </mxCell>
        <mxCell id="rXkE-m-KWas-da-UY29d-15" value="start command loop (&lt;i&gt;cmd.Execute()&lt;/i&gt;)" style="strokeWidth=2;html=1;shape=mxgraph.flowchart.loop_limit;whiteSpace=wrap;" parent="1" vertex="1">
          <mxGeometry x="480" y="360" width="200" height="40" as="geometry" />
        </mxCell>
      </root>
    </mxGraphModel>
  </diagram>
</mxfile>
